<svg xmlns="http://www.w3.org/2000/svg" viewBox="0 0 100 100" width="100%" height="100%">
  <defs>
    <linearGradient id="bgGrad" x1="0%" y1="0%" x2="100%" y2="100%">
      <stop offset="0%" stop-color="#10b981"/>
      <stop offset="100%" stop-color="#14b8a6"/>
    </linearGradient>
  </defs>

  <!-- Rounded Squircle Background -->
  <rect x="5" y="5" width="90" height="90" rx="26" fill="url(#bgGrad)"/>

  <!-- Chat Bubble Shape -->
  <path d="M 50 18 C 30 18 16 31 16 48 C 16 57 20 65 27 71 C 25 78 20 82 16 84 C 25 84 34 80 39 77 C 43 78 46 78 50 78 C 70 78 84 65 84 48 C 84 31 70 18 50 18 Z" fill="#020617"/>

  <!-- Pulse ECG Heartbeat Line inside Chat Bubble -->
  <path d="M 26 48 L 36 48 L 42 34 L 50 62 L 58 38 L 64 48 L 74 48" stroke="#10b981" stroke-width="5" stroke-linecap="round" stroke-linejoin="round" fill="none"/>
</svg>
